<svg xmlns="http://www.w3.org/2000/svg" viewBox="0 0 50 30" width="50" height="30">
	<defs>
		<linearGradient id="grd1" gradientUnits="userSpaceOnUse" x1="10.963" y1="4.989" x2="30.374" y2="26.627">
			<stop offset="0.027" stop-color="#ba9f4d"/>
			<stop offset="0.138" stop-color="#f5e198"/>
			<stop offset="0.235" stop-color="#c6a24c"/>
			<stop offset="0.319" stop-color="#f5e198"/>
			<stop offset="0.433" stop-color="#c6a24c"/>
			<stop offset="0.554" stop-color="#f8e39d"/>
			<stop offset="0.637" stop-color="#c6a24c"/>
			<stop offset="0.7" stop-color="#f8e39d"/>
			<stop offset="0.803" stop-color="#c0a64d"/>
		</linearGradient>
		<linearGradient id="grd2" gradientUnits="userSpaceOnUse" x1="53.684" y1="4.827" x2="28.814" y2="27.935">
			<stop offset="0.319" stop-color="#c6a24c"/>
			<stop offset="0.554" stop-color="#f8e39d"/>
			<stop offset="0.969" stop-color="#9a7e49"/>
		</linearGradient>
	</defs>
	<style>
		tspan { white-space:pre }
		.shp0 { fill: #304654 } 
		.shp1 { fill: url(#grd1) } 
		.shp2 { fill: url(#grd2) } 
	</style>
	<path id="Layer" class="shp0" d="M24.62,30.03h-23.19c-0.79,0 -1.44,-0.65 -1.44,-1.45v-27.11c0,-0.8 0.65,-1.45 1.44,-1.45h38.38c0.38,0 0.71,0.25 0.81,0.62c3.92,14.11 -6.5,29.4 -16,29.4z"/>
	<path id="Layer" class="shp1" d="M14.65,11.39h0.08c0.44,0 0.8,0.37 0.78,0.81l-0.1,3.43c-0.02,0.71 0.54,1.29 1.24,1.29h0c0.69,0 1.24,-0.56 1.24,-1.25v-3.48c0,-0.44 0.35,-0.79 0.78,-0.79h0c0.43,0 0.78,0.35 0.78,0.79v3.64c0,1.26 -1.02,2.28 -2.27,2.28h-1.08c-1.25,0 -2.27,-1.02 -2.27,-2.28v-3.64c0,-0.44 0.35,-0.79 0.78,-0.79zM10.92,11.91c0,-0.29 0.23,-0.52 0.51,-0.52h0.1c0.63,0 1.13,0.51 1.13,1.14v4.95c0,0.26 -0.21,0.46 -0.46,0.46h-0.5c-0.25,0 -0.46,-0.21 -0.46,-0.46v-2.45h-2.81c-0.14,1 0.18,1.98 0.65,3.07c-2.34,-0.75 -2.43,-6.5 -0.29,-6.5c-0.33,0.58 -0.39,1.43 -0.38,2.37h2.83v-1.73c0,-0.18 -0.15,-0.33 -0.33,-0.33zM7.05,12.87c-0.47,2.84 0.05,4.77 1.9,5.5c-0.76,1.13 -4.04,-0.58 -3,-2.75c0.32,1.27 0.89,2.24 1.89,2.7c-1.68,-1.42 -2.21,-4.26 -0.78,-5.45zM21.19,11.39h0.84c0.17,0 0.33,0.1 0.41,0.25l1.55,3.1l1.43,-3.05c0.07,-0.16 0.23,-0.26 0.41,-0.26h0.96c0.25,0 0.45,0.2 0.45,0.46v5.59c0,0.3 -0.24,0.54 -0.54,0.54h-0.37c-0.3,0 -0.54,-0.24 -0.54,-0.54v-4.25l-1.53,2.99c-0.2,0.4 -0.77,0.4 -0.98,0l-1.48,-2.81v4.06c0,0.3 -0.24,0.54 -0.54,0.54h0c-0.3,0 -0.54,-0.24 -0.54,-0.54v-5.63c0,-0.25 0.2,-0.46 0.45,-0.46zM34.64,14.73c0,1.92 -1.47,3.48 -3.29,3.48c-1.82,0 -3.29,-1.56 -3.29,-3.48c0,-1.92 1.47,-3.48 3.29,-3.48c1.82,0 3.29,1.56 3.29,3.48zM33.08,14.73c0,-1.38 -0.78,-2.51 -1.74,-2.51c-0.96,0 -1.74,1.12 -1.74,2.51c0,1.38 0.78,2.51 1.74,2.51c0.96,0 1.74,-1.12 1.74,-2.51z"/>
	<path id="Layer" class="shp2" d="M28.77,29.94c8.73,-3.72 17.04,-16.23 12.99,-29.92c6.81,0.35 5.44,15.45 -1.62,24.32c4.36,-3.55 7.22,-8.6 7.5,-18.25c5,3.75 1.81,18.25 -8.65,21.61c3.65,-0.29 7.11,-2.31 9.83,-7.36c1.54,2.86 -0.35,6.99 -6.1,8.81c-3.19,1.01 -7.34,0.96 -13.95,0.79z"/>
</svg>