<svg width="106" height="82" viewBox="0 0 106 82" fill="none" xmlns="http://www.w3.org/2000/svg">
    <path d="M105.962 65.5714C105.962 74.5749 98.6307 81.9063 89.6272 81.9063H0.75V17.2099C0.75 8.20641 8.08141 0.875 17.0849 0.875H105.962V65.5714Z" fill="white"/>
    <path d="M77.0223 48.9795H83.7749C83.9679 48.9795 84.4181 48.9152 84.611 48.9152C85.8972 48.6579 86.9905 47.5003 86.9905 45.8926C86.9905 44.3491 85.8972 43.1915 84.611 42.87C84.4181 42.8057 84.0322 42.8057 83.7749 42.8057H77.0223V48.9795Z" fill="url(#paint0_linear_445_487)"/>
    <path d="M83.0032 6.34131C76.5722 6.34131 71.2987 11.5505 71.2987 18.0458V30.2005H87.8265C88.2124 30.2005 88.6625 30.2005 88.9841 30.2648C92.7141 30.4578 95.4795 32.3871 95.4795 35.7312C95.4795 38.368 93.6145 40.6188 90.1417 41.069V41.1976C93.936 41.4549 96.83 43.5771 96.83 46.857C96.83 50.3941 93.6145 52.7092 89.37 52.7092H71.2344V76.5041H88.4053C94.8364 76.5041 100.11 71.295 100.11 64.7996V6.34131H83.0032Z" fill="url(#paint1_linear_445_487)"/>
    <path d="M86.1544 36.503C86.1544 34.9596 85.0612 33.9306 83.7749 33.7377C83.6463 33.7377 83.3248 33.6733 83.1318 33.6733H77.0223V39.3327H83.1318C83.3248 39.3327 83.7106 39.3327 83.7749 39.2684C85.0612 39.0754 86.1544 38.0465 86.1544 36.503Z" fill="url(#paint2_linear_445_487)"/>
    <path d="M18.3067 6.34131C11.8757 6.34131 6.60221 11.5505 6.60221 18.0458V46.9213C9.88205 48.529 13.2905 49.558 16.699 49.558C20.7505 49.558 22.9371 47.1142 22.9371 43.7701V30.1362H32.9696V43.7057C32.9696 48.9792 29.6897 53.288 18.564 53.288C11.8114 53.288 6.5379 51.8089 6.5379 51.8089V76.4398H23.7088C30.1399 76.4398 35.4134 71.2307 35.4134 64.7353V6.34131H18.3067Z" fill="url(#paint3_linear_445_487)"/>
    <path d="M50.655 6.34131C44.2239 6.34131 38.9504 11.5505 38.9504 18.0458V33.3518C41.9087 30.8436 47.0536 29.2359 55.3496 29.6217C59.7871 29.8147 64.5461 31.0366 64.5461 31.0366V35.9885C62.1666 34.7666 59.3369 33.6733 55.6712 33.4161C49.3688 32.9659 45.5744 36.0528 45.5744 41.4549C45.5744 46.9213 49.3688 50.0082 55.6712 49.4937C59.3369 49.2365 62.1666 48.0789 64.5461 46.9213V51.8732C64.5461 51.8732 59.8514 53.0951 55.3496 53.288C47.0536 53.6739 41.9087 52.0661 38.9504 49.558V76.5685H56.1214C62.5524 76.5685 67.8259 71.3593 67.8259 64.8639V6.34131H50.655Z" fill="url(#paint4_linear_445_487)"/>
    <defs>
        <linearGradient id="paint0_linear_445_487" x1="71.288" y1="45.9002" x2="100.187" y2="45.9002" gradientUnits="userSpaceOnUse">
            <stop stop-color="#007940"/>
            <stop offset="0.2285" stop-color="#00873F"/>
            <stop offset="0.7433" stop-color="#40A737"/>
            <stop offset="1" stop-color="#5CB531"/>
        </linearGradient>
        <linearGradient id="paint1_linear_445_487" x1="71.2871" y1="41.3946" x2="100.189" y2="41.3946" gradientUnits="userSpaceOnUse">
            <stop stop-color="#007940"/>
            <stop offset="0.2285" stop-color="#00873F"/>
            <stop offset="0.7433" stop-color="#40A737"/>
            <stop offset="1" stop-color="#5CB531"/>
        </linearGradient>
        <linearGradient id="paint2_linear_445_487" x1="71.2872" y1="36.495" x2="100.188" y2="36.495" gradientUnits="userSpaceOnUse">
            <stop stop-color="#007940"/>
            <stop offset="0.2285" stop-color="#00873F"/>
            <stop offset="0.7433" stop-color="#40A737"/>
            <stop offset="1" stop-color="#5CB531"/>
        </linearGradient>
        <linearGradient id="paint3_linear_445_487" x1="6.5886" y1="41.3946" x2="35.9355" y2="41.3946" gradientUnits="userSpaceOnUse">
            <stop stop-color="#1F286F"/>
            <stop offset="0.4751" stop-color="#004E94"/>
            <stop offset="0.8261" stop-color="#0066B1"/>
            <stop offset="1" stop-color="#006FBC"/>
        </linearGradient>
        <linearGradient id="paint4_linear_445_487" x1="38.7842" y1="41.3946" x2="67.2868" y2="41.3946" gradientUnits="userSpaceOnUse">
            <stop stop-color="#6C2C2F"/>
            <stop offset="0.1735" stop-color="#882730"/>
            <stop offset="0.5731" stop-color="#BE1833"/>
            <stop offset="0.8585" stop-color="#DC0436"/>
            <stop offset="1" stop-color="#E60039"/>
        </linearGradient>
    </defs>
</svg>