<svg width="40" height="24" viewBox="0 0 40 24" fill="none" xmlns="http://www.w3.org/2000/svg">
<path d="M24.7172 4.16455H15.8824V19.8582H24.7172V4.16455Z" fill="#FF5F00"/>
<path d="M16.4434 12.0112C16.4434 8.96121 17.8738 6.04985 20.3139 4.1644C15.9385 0.753956 9.57184 1.50259 6.1501 5.85576C2.72836 10.2089 3.45758 16.4753 7.86097 19.858C11.5351 22.7139 16.6677 22.7139 20.3419 19.858C17.8457 17.9448 16.4153 15.0612 16.4434 12.0112Z" fill="#EB001B"/>
<path d="M36.6092 12.0118C36.6092 17.5295 32.0937 21.9936 26.5123 21.9936C24.2405 21.9936 22.0528 21.245 20.2859 19.8586C24.6612 16.4482 25.4185 10.1541 21.9967 5.82866C21.4919 5.19094 20.9309 4.63639 20.2859 4.1373C24.6612 0.726856 31.0279 1.47549 34.4776 5.82866C35.852 7.57548 36.6092 9.76593 36.6092 12.0118Z" fill="#F79E1B"/>
</svg>