<svg width="40" height="24" viewBox="0 0 40 24" fill="none" xmlns="http://www.w3.org/2000/svg">
<g clip-path="url(#clip0_363_643)">
<path d="M10.3154 2H18.3644C19.4879 2 20.1868 2.90708 19.9246 4.02364L16.1773 19.9593C15.9128 21.072 14.7879 21.9799 13.6635 21.9799H5.61533C4.49333 21.9799 3.79295 21.072 4.05505 19.9593L7.804 4.02364C8.0661 2.90708 9.19045 2 10.3154 2Z" fill="#E21836"/>
<path d="M17.6946 2H26.9507C28.0741 2 27.5675 2.90708 27.3033 4.02364L23.5565 19.9593C23.2936 21.072 23.3756 21.9799 22.2499 21.9799H12.9937C11.868 21.9799 11.1714 21.072 11.4358 19.9593L15.1824 4.02364C15.4484 2.90708 16.5704 2 17.6946 2Z" fill="#00447C"/>
<path d="M26.5836 2H34.6325C35.7577 2 36.4565 2.90708 36.1922 4.02364L32.4454 19.9593C32.181 21.072 31.0553 21.9799 29.9303 21.9799H21.8851C20.7593 21.9799 20.0611 21.072 20.3248 19.9593L24.0722 4.02364C24.3343 2.90708 25.4578 2 26.5836 2Z" fill="#007B84"/>
<path d="M12.4175 7.10699C11.5897 7.11535 11.3453 7.10699 11.2672 7.08873C11.2372 7.23 10.6786 9.78199 10.6771 9.78413C10.5568 10.3004 10.4693 10.6685 10.1721 10.9061C10.0034 11.0443 9.8064 11.1109 9.57804 11.1109C9.21097 11.1109 8.99713 10.9304 8.96122 10.588L8.95436 10.4705C8.95436 10.4705 9.06618 9.77888 9.06618 9.77499C9.06618 9.77499 9.65239 7.44938 9.75735 7.14197C9.76285 7.12448 9.76442 7.11535 9.76579 7.10699C8.62476 7.1169 8.42249 7.10699 8.40856 7.08873C8.40091 7.1138 8.37266 7.25798 8.37266 7.25798L7.77409 9.87915L7.72269 10.1014L7.62323 10.8286C7.62323 11.0443 7.66599 11.2203 7.75114 11.3692C8.02384 11.8412 8.80172 11.9119 9.24177 11.9119C9.80875 11.9119 10.3406 11.7926 10.7 11.5748C11.3239 11.2097 11.4871 10.6389 11.6327 10.1318L11.7002 9.87157C11.7002 9.87157 12.3041 7.45619 12.4067 7.14197C12.4106 7.12448 12.4122 7.11535 12.4175 7.10699ZM14.4721 9.05551C14.3265 9.05551 14.0605 9.09049 13.8215 9.20649C13.7348 9.2506 13.6528 9.30152 13.5663 9.35223L13.6444 9.073L13.6016 9.02597C13.0948 9.1276 12.9814 9.1412 12.5133 9.20649L12.4741 9.23234C12.4198 9.67869 12.3715 10.0143 12.17 10.8916C12.0933 11.215 12.0136 11.5414 11.9338 11.864L11.9554 11.905C12.4351 11.8799 12.5806 11.8799 12.9975 11.8867L13.0313 11.8504C13.0842 11.5817 13.0911 11.5187 13.2084 10.9744C13.2636 10.7164 13.3785 10.1493 13.4352 9.94743C13.5394 9.89963 13.6422 9.8526 13.7403 9.8526C13.9739 9.8526 13.9455 10.0545 13.9365 10.135C13.9265 10.27 13.8413 10.7111 13.754 11.0898L13.6958 11.3343C13.6551 11.5148 13.6106 11.6903 13.57 11.8692L13.5877 11.905C14.0605 11.8799 14.2047 11.8799 14.6084 11.8867L14.6559 11.8504C14.7289 11.4307 14.7503 11.3184 14.8797 10.7072L14.9449 10.4264C15.0714 9.87689 15.135 9.59824 15.0392 9.37128C14.938 9.11691 14.6951 9.05551 14.4721 9.05551ZM16.7673 9.63087C16.516 9.67867 16.3557 9.71054 16.1964 9.73114C16.0385 9.7562 15.8845 9.77894 15.6416 9.81236L15.6224 9.82966L15.6047 9.84345C15.5794 10.0226 15.5617 10.1775 15.5282 10.3596C15.4997 10.5479 15.456 10.7618 15.3848 11.0692C15.3296 11.3045 15.3012 11.3865 15.2698 11.4693C15.2392 11.5521 15.2055 11.6325 15.1435 11.864L15.158 11.8854L15.1701 11.905C15.3971 11.8943 15.5456 11.8867 15.6983 11.8854C15.8507 11.8799 16.0086 11.8854 16.2531 11.8867L16.2745 11.8694L16.2974 11.8504C16.3327 11.6417 16.338 11.5855 16.3596 11.4837C16.381 11.3745 16.4179 11.2233 16.5083 10.8195C16.5511 10.6299 16.5988 10.4408 16.6431 10.2472C16.6892 10.0545 16.7375 9.86463 16.7834 9.67498L16.7765 9.65205L16.7673 9.63087ZM16.7727 8.85511C16.5443 8.72161 16.1435 8.76397 15.8737 8.94838C15.6048 9.1291 15.5742 9.3856 15.8017 9.52084C16.0262 9.65065 16.4285 9.61198 16.696 9.42602C16.9643 9.24141 16.9979 8.98724 16.7727 8.85511ZM18.1537 11.9468C18.6157 11.9468 19.0893 11.8207 19.4458 11.4464C19.7201 11.1429 19.8458 10.6913 19.8894 10.5054C20.0312 9.88898 19.9208 9.6012 19.7821 9.42592C19.5714 9.15873 19.199 9.07304 18.8127 9.07304C18.5804 9.07304 18.0272 9.09577 17.595 9.49043C17.2846 9.77511 17.1412 10.1614 17.0547 10.5318C16.9674 10.9092 16.8669 11.5885 17.4977 11.8413C17.6923 11.9241 17.9728 11.9468 18.1537 11.9468ZM18.1176 10.56C18.2242 10.0932 18.3499 9.70146 18.6709 9.70146C18.9224 9.70146 18.9406 9.99294 18.8288 10.4613C18.8088 10.5652 18.717 10.9517 18.5928 11.1163C18.5061 11.2377 18.4035 11.3114 18.2901 11.3114C18.2563 11.3114 18.0556 11.3114 18.0525 11.0162C18.0509 10.8705 18.0809 10.7216 18.1176 10.56ZM21.0443 11.8868L21.0804 11.8505C21.1316 11.5817 21.1401 11.5186 21.2535 10.9745C21.3102 10.7164 21.4275 10.1494 21.4826 9.94749C21.587 9.89949 21.688 9.85247 21.7893 9.85247C22.0214 9.85247 21.9931 10.0544 21.9839 10.1348C21.9755 10.2701 21.8903 10.711 21.8014 11.0897L21.7463 11.3342C21.7041 11.5149 21.6582 11.6901 21.6176 11.8693L21.6353 11.9051C22.1096 11.88 22.2483 11.88 22.6545 11.8868L22.7035 11.8505C22.7747 11.4305 22.7939 11.3182 22.9274 10.7073L22.9909 10.4263C23.118 9.87676 23.1824 9.5983 23.0882 9.37133C22.9841 9.11697 22.7396 9.05557 22.5197 9.05557C22.3739 9.05557 22.1065 9.09035 21.8689 9.20655C21.784 9.25066 21.6988 9.30138 21.6153 9.35229L21.688 9.07306L21.649 9.02584C21.1424 9.12766 21.0267 9.14126 20.5592 9.20655L20.5233 9.2324C20.4666 9.67875 20.4205 10.0141 20.219 10.8917C20.1423 11.215 20.0626 11.5415 19.983 11.8641L20.0044 11.9051C20.4848 11.88 20.6282 11.88 21.0443 11.8868ZM24.5297 11.905C24.5595 11.7608 24.7367 10.9062 24.7383 10.9062C24.7383 10.9062 24.8891 10.2791 24.8983 10.2564C24.8983 10.2564 24.9458 10.1911 24.9933 10.1652H25.0631C25.7221 10.1652 26.4663 10.1652 27.0495 9.74025C27.4464 9.44877 27.7178 9.01835 27.8388 8.49525C27.8702 8.367 27.8933 8.21446 27.8933 8.06192C27.8933 7.86157 27.8527 7.66337 27.7354 7.5085C27.438 7.09635 26.8457 7.08877 26.162 7.08566C26.1598 7.08566 25.8249 7.08877 25.8249 7.08877C24.9498 7.09946 24.5988 7.09635 24.4546 7.07886C24.4424 7.14201 24.4195 7.25433 24.4195 7.25433C24.4195 7.25433 24.1059 8.69345 24.1059 8.69579C24.1059 8.69579 23.3557 11.7555 23.3204 11.8997C24.0846 11.8906 24.3979 11.8906 24.5297 11.905ZM25.1106 9.3485C25.1106 9.3485 25.4439 7.91229 25.4424 7.91773L25.4532 7.84409L25.4579 7.78793L25.5911 7.80153C25.5911 7.80153 26.2785 7.86002 26.2946 7.86157C26.5659 7.96553 26.6778 8.2335 26.5997 8.58327C26.5285 8.90293 26.3191 9.17167 26.0502 9.30148C25.8287 9.41146 25.5573 9.42059 25.2778 9.42059H25.0969L25.1106 9.3485ZM27.186 10.5866C27.0979 10.9585 26.9967 11.6378 27.6243 11.88C27.8244 11.9643 28.0037 11.9894 28.1859 11.9802C28.3784 11.9699 28.5567 11.8743 28.7219 11.7367C28.707 11.7933 28.6921 11.8498 28.6772 11.9066L28.7056 11.9429C29.1571 11.9241 29.2971 11.9241 29.7862 11.9278L29.8306 11.8943C29.902 11.4785 29.9693 11.0747 30.1549 10.2792C30.2453 9.89809 30.3356 9.52073 30.4284 9.14122L30.4138 9.09944C29.9089 9.19213 29.7739 9.21195 29.2881 9.28016L29.2512 9.30989C29.2463 9.34856 29.2412 9.38568 29.2365 9.42279C29.161 9.30192 29.0515 9.19874 28.8826 9.13442C28.6666 9.05028 28.1593 9.15871 27.7231 9.55201C27.4167 9.8328 27.2695 10.2176 27.186 10.5866ZM28.2466 10.6093C28.3547 10.1509 28.4788 9.76304 28.8006 9.76304C29.004 9.76304 29.1112 9.94901 29.0894 10.2661C29.0721 10.3452 29.0535 10.4286 29.0313 10.5228C28.9991 10.659 28.9642 10.7941 28.9303 10.9293C28.8957 11.0218 28.8555 11.1091 28.8114 11.1672C28.7286 11.2834 28.5316 11.3555 28.4182 11.3555C28.3861 11.3555 28.1875 11.3555 28.1806 11.0656C28.1791 10.9212 28.2091 10.7725 28.2466 10.6093ZM33.785 9.09573L33.746 9.05162C33.2463 9.15189 33.1559 9.16782 32.6968 9.22923L32.663 9.26265C32.6615 9.26809 32.6601 9.27645 32.6577 9.28403L32.6562 9.27645C32.3144 10.0574 32.3244 9.88894 32.0462 10.5038C32.0447 10.4758 32.0447 10.4583 32.0431 10.4286L31.9734 9.09573L31.9297 9.05162C31.4063 9.15189 31.3939 9.16782 30.9105 9.22923L30.8728 9.26265C30.8675 9.27859 30.8675 9.29608 30.8644 9.31512L30.8675 9.32192C30.928 9.62778 30.9134 9.55957 30.9741 10.0423C31.0023 10.2791 31.04 10.5174 31.0682 10.7513C31.1159 11.1429 31.1426 11.3356 31.2008 11.9332C30.8744 12.4668 30.7971 12.6687 30.4828 13.137L30.485 13.1416L30.2637 13.4883C30.2384 13.5248 30.2154 13.5499 30.1832 13.5606C30.1479 13.5779 30.102 13.581 30.0382 13.581H29.9156L29.7334 14.1814L30.3586 14.1921C30.7257 14.1906 30.9564 14.0206 31.0806 13.792L31.4737 13.1247H31.4675L31.5089 13.0777C31.7733 12.5138 33.785 9.09573 33.785 9.09573ZM27.186 16.9817H26.9207L27.9024 13.7655H28.2281L28.3315 13.4342L28.3415 13.8026C28.3293 14.0304 28.5102 14.2323 28.9854 14.1988H29.5349L29.724 13.5795H29.5172C29.3984 13.5795 29.3432 13.5498 29.3501 13.4861L29.3401 13.1112H28.3225V13.1132C27.9935 13.12 27.011 13.1445 26.812 13.1969C26.5713 13.2583 26.3176 13.4391 26.3176 13.4391L26.4173 13.1073H25.4654L25.267 13.7655L24.2722 17.0308H24.0791L23.8898 17.6457H25.7858L25.7222 17.8507H26.6564L26.7184 17.6457H26.9805L27.186 16.9817ZM26.4081 14.419C26.2556 14.4608 25.9719 14.5875 25.9719 14.5875L26.2242 13.7655H26.9805L26.7981 14.3644C26.7981 14.3644 26.5644 14.378 26.4081 14.419ZM26.4226 15.5933C26.4226 15.5933 26.185 15.6228 26.0286 15.6578C25.8746 15.704 25.5858 15.8498 25.5858 15.8498L25.8464 14.9944H26.6066L26.4226 15.5933ZM25.9988 16.9893H25.2402L25.4601 16.2674H26.2164L25.9988 16.9893ZM27.8258 14.9944H28.9194L28.7622 15.4984H27.6542L27.4878 16.0495H28.4574L27.7232 17.0734C27.6718 17.1486 27.6257 17.1752 27.5745 17.1964C27.5231 17.2222 27.4556 17.2526 27.3776 17.2526H27.1086L26.9238 17.8561H27.6273C27.993 17.8561 28.209 17.6913 28.3685 17.4751L28.8719 16.7926L28.98 17.4855C29.003 17.6154 29.0971 17.6913 29.1609 17.7209C29.2313 17.7558 29.3041 17.8159 29.4069 17.8248C29.5172 17.8295 29.5968 17.8332 29.6498 17.8332H29.9955L30.203 17.1577H30.0667C29.9884 17.1577 29.8536 17.1447 29.8307 17.1204C29.8077 17.0909 29.8077 17.0454 29.7954 16.9762L29.6857 16.2817H29.2366L29.4336 16.0495H30.5395L30.7096 15.4984H29.6857L29.8452 14.9944H30.866L31.0553 14.3728H28.012L27.8258 14.9944ZM18.5897 17.1296L18.8449 16.2886H19.8939L20.0856 15.6631H19.0356L19.1959 15.1454H20.222L20.4121 14.5397H17.8448L17.6586 15.1454H18.2418L18.0863 15.6631H17.5014L17.3076 16.2993H17.8907L17.5505 17.412C17.5046 17.5593 17.5721 17.6154 17.6148 17.6838C17.6586 17.7505 17.7029 17.7946 17.8026 17.8196C17.9054 17.8424 17.9758 17.856 18.0716 17.856H19.2542L19.4649 17.163L18.9407 17.2344C18.8394 17.2344 18.5591 17.2223 18.5897 17.1296ZM18.71 13.1036L18.4442 13.5794C18.3873 13.6834 18.3361 13.7479 18.29 13.7777C18.2494 13.8027 18.1689 13.8132 18.0524 13.8132H17.9137L17.7283 14.422H18.1889C18.4104 14.422 18.5805 14.3416 18.6617 14.3013C18.7491 14.2551 18.772 14.2815 18.8395 14.217L18.9951 14.0835H20.4335L20.6244 13.4496H19.5715L19.7553 13.1036H18.71ZM20.8336 17.1418C20.8091 17.1069 20.8268 17.0453 20.8642 16.917L21.2574 15.6281H22.656C22.8598 15.6252 23.007 15.6228 23.1027 15.616C23.2055 15.6054 23.3174 15.569 23.4392 15.5037C23.5649 15.4353 23.6293 15.3632 23.6836 15.2805C23.7443 15.1979 23.8416 15.0172 23.9251 14.7385L24.4193 13.1074L22.9679 13.1157C22.9679 13.1157 22.521 13.181 22.3243 13.2531C22.1257 13.3336 21.842 13.5582 21.842 13.5582L21.9731 13.1111H21.0765L19.8213 17.2343C19.7768 17.3945 19.7469 17.5107 19.7401 17.5804C19.7377 17.6556 19.8358 17.73 19.8994 17.7862C19.9745 17.8424 20.0856 17.8332 20.1921 17.8424C20.3041 17.8507 20.4634 17.856 20.6833 17.856H21.3724L21.5838 17.1486L20.967 17.2064C20.9011 17.2064 20.8534 17.1714 20.8336 17.1418ZM21.5111 14.7575H22.9801L22.8867 15.0475C22.8736 15.0543 22.8422 15.0331 22.6927 15.0506H21.4206L21.5111 14.7575ZM21.8053 13.7852H23.2867L23.1802 14.1344C23.1802 14.1344 22.482 14.1276 22.3702 14.148C21.8781 14.2323 21.5907 14.4927 21.5907 14.4927L21.8053 13.7852ZM22.9196 16.0183C22.9074 16.0617 22.8882 16.0881 22.8613 16.1079C22.8315 16.127 22.7833 16.1338 22.7113 16.1338H22.5019L22.5143 15.7807H21.6436L21.6083 17.5068C21.6069 17.6314 21.6191 17.7035 21.7111 17.7612C21.8031 17.8333 22.0866 17.8424 22.4682 17.8424H23.0138L23.2107 17.1963L22.7358 17.2221L22.5778 17.2313C22.5563 17.2222 22.5357 17.2138 22.5127 17.1911C22.4927 17.1714 22.459 17.1835 22.4644 17.0589L22.4682 16.6165L22.9663 16.5961C23.2353 16.5961 23.3502 16.5094 23.4483 16.4268C23.5419 16.3477 23.5725 16.2568 23.6078 16.1338L23.6914 15.742H23.0069L22.9196 16.0183Z" fill="#FEFEFE"/>
</g>
<defs>
<clipPath id="clip0_363_643">
<rect width="32.3077" height="20" fill="white" transform="translate(4 2)"/>
</clipPath>
</defs>
</svg>