<svg xmlns="http://www.w3.org/2000/svg" viewBox="0 0 33 30" width="33" height="30">
	<style>
		tspan { white-space:pre }
		.shp0 { fill: #004388 } 
		.shp1 { fill: #f4821f } 
	</style>
	<g id="Layer">
		<path id="Layer" class="shp0" d="M27.5,26.7c0,0.3 -0.22,0.52 -0.45,0.52c-0.3,0 -0.45,-0.22 -0.45,-0.45c0,-0.3 0.22,-0.45 0.45,-0.45h0.45zM6.5,28.35v-1.57h0.53v1.57c0,0.3 0.3,0.6 0.6,0.6c0.3,0 0.6,-0.3 0.6,-0.6v-1.57h0.6v1.57c0,0.6 -0.37,1.05 -1.2,1.05c-0.75,0 -1.12,-0.45 -1.12,-1.05zM10.25,29.33v-0.45l1.2,-1.65h-1.2v-0.45h1.95v0.45l-1.2,1.65h1.2v0.45zM14.83,29.33c-0.75,0 -1.27,-0.6 -1.27,-1.35c0,-0.75 0.6,-1.27 1.35,-1.27c0.45,-0.08 0.82,0.22 1.05,0.6l-0.45,0.23c-0.07,-0.23 -0.37,-0.37 -0.6,-0.37c-0.45,0 -0.83,0.38 -0.83,0.82c0,0.45 0.38,0.9 0.83,0.9c0.22,0 0.45,-0.15 0.6,-0.37l0.38,0.23c-0.15,0.45 -0.6,0.68 -1.05,0.68c0,0 0,0 0,-0.07zM19.03,29.33l-0.15,-0.45h-1.12l-0.15,0.45h-0.6l1.05,-2.62h0.67l0.98,2.63zM18.27,27.3l-0.37,1.13h0.82zM22.78,30.07l-0.9,-1.58h-0.37v0.9h-0.45v-2.62h1.27c0.45,0 0.75,0.38 0.75,0.82c0,0.38 -0.23,0.68 -0.6,0.75l0.98,1.65zM22.1,27.98c0.23,-0.07 0.38,-0.22 0.38,-0.37c0,-0.15 -0.15,-0.3 -0.37,-0.3h-0.6v0.68zM25.47,29.4h-0.97v-2.62h0.97c0.75,0 1.35,0.52 1.35,1.27c0,0.75 -0.52,1.28 -1.35,1.28zM25.47,28.88c0.52,0 0.83,-0.38 0.83,-0.9v-0.07c-0.08,-0.37 -0.37,-0.68 -0.83,-0.68h-0.45v1.65zM25.47,28.88c0.08,0 0,0 0,0z"/>
		<g id="Group_13">
			<path id="Path_17" class="shp0" d="M26.85,12.55c0,3.68 -0.82,6.45 -2.55,8.25c-1.73,1.8 -4.27,2.7 -7.8,2.7c-3.3,0 -5.77,-0.9 -7.5,-2.7c-1.73,-1.8 -2.55,-4.5 -2.55,-8.1v-12.15c0,-0.3 0.23,-0.52 0.52,-0.52h6c0.3,0 0.52,0.23 0.52,0.52v12.45c0,1.5 0.3,2.63 0.82,3.45c0.98,1.35 2.93,1.57 4.2,0.6c0.23,-0.15 0.38,-0.3 0.52,-0.52c0.52,-0.75 0.82,-1.87 0.82,-3.3v-2.32h6.97z"/>
			<path id="Path_18" class="shp0" d="M26.32,9.4h-6.45v-8.85c0,-0.3 0.23,-0.52 0.52,-0.52h0.98c0,3 2.48,5.48 5.47,5.48v0v3.9z"/>
			<path id="Path_19" class="shp1" d="M22.72,0.02h3.6c0.3,0 0.52,0.23 0.52,0.52v3.6c-2.25,0 -4.12,-1.87 -4.12,-4.12z"/>
		</g>
	</g>
</svg>