<svg width="48" height="24" viewBox="0 0 48 24" fill="none" xmlns="http://www.w3.org/2000/svg">
<path d="M18.463 5.24069L12.4361 18.7794H8.51759L5.55741 7.98854C5.38704 7.32665 5.21667 7.08596 4.66296 6.80516C3.76852 6.34384 2.29907 5.90258 1 5.64183L1.08519 5.24069H7.41019C8.21944 5.24069 8.94352 5.74212 9.11389 6.62464L10.6898 14.447L14.5657 5.24069H18.463ZM33.8602 14.3668C33.8815 10.7966 28.6213 10.596 28.6426 9.01146C28.6639 8.53009 29.1537 8.0086 30.2185 7.86819C30.7509 7.80802 32.2204 7.74785 33.8815 8.46991L34.5417 5.60172C33.6472 5.30086 32.4972 5 31.0704 5C27.3861 5 24.8093 6.84527 24.788 9.47278C24.7667 11.4183 26.6407 12.5014 28.0463 13.1633C29.4944 13.8252 29.9843 14.2464 29.9843 14.8481C29.9843 15.7507 28.8343 16.1519 27.7694 16.1719C25.8954 16.192 24.8093 15.6905 23.9574 15.3095L23.2759 18.2779C24.1491 18.659 25.7463 18.9799 27.4074 19C31.2833 19 33.8389 17.1748 33.8602 14.3668ZM43.5713 18.7794H47L43.9972 5.24069H40.8241C40.1213 5.24069 39.5037 5.62178 39.2481 6.24355L33.6685 18.7794H37.5657L38.3324 16.7536H43.1028L43.5713 18.7794ZM39.4185 13.9857L41.3778 8.91117L42.5065 13.9857H39.4185ZM23.787 5.24069L20.6991 18.7794H16.9935L20.0602 5.24069H23.787Z" fill="#1434CB"/>
</svg>